<svg width="39" height="36" viewBox="0 0 39 36" fill="none" xmlns="http://www.w3.org/2000/svg">
<path d="M35.8874 13.3101V32.9711C35.8874 34.2952 34.7396 35.369 33.3242 35.369H5.12915C3.71379 35.369 2.56596 34.2952 2.56596 32.9711C2.56596 14.3841 2.56428 17.8659 2.57157 13.3101H35.8874Z" fill="#E1F4F5"/>
<path d="M35.8875 13.3101V17.8509C35.8875 18.8336 35.0454 19.6477 33.995 19.6517C33.9833 19.6518 4.47883 19.6518 4.45752 19.6517C3.40741 19.6474 2.56597 18.8333 2.56597 17.8509C2.56597 16.5403 2.56501 17.4452 2.57157 13.3101H35.8875Z" fill="#CAEFF2"/>
<path d="M25.7148 24.6534V35.369H12.7386V24.6534C12.7386 23.3293 13.8864 22.2555 15.3018 22.2555H23.1516C24.5669 22.2555 25.7148 23.3293 25.7148 24.6534Z" fill="#F4FEFF"/>
<path d="M37.8098 13.3099C37.8098 15.7091 35.7302 17.6561 33.164 17.6561C30.5984 17.6561 28.5182 15.7101 28.5182 13.3099C28.5182 15.7101 26.4381 17.6561 23.8725 17.6561C21.3069 17.6561 19.2267 15.7101 19.2267 13.3099C19.2267 15.7101 17.1465 17.6561 14.5809 17.6561C12.0153 17.6561 9.93514 15.7101 9.93514 13.3099C9.93114 15.6944 7.83333 17.6561 5.28937 17.6561C2.74853 17.6561 0.647598 15.6968 0.643593 13.3099C0.643593 9.53266 0.63254 9.76511 0.671628 9.59171C0.710076 9.42154 0.443585 10.0241 4.47396 1.32197C4.67741 0.88361 5.13958 0.599609 5.64982 0.599609H32.8036C33.3138 0.599609 33.776 0.88361 33.9794 1.32197C38.0128 10.0305 37.7432 9.42139 37.7818 9.59171C37.8208 9.76473 37.8098 9.52854 37.8098 13.3099Z" fill="#CAEFF2"/>
<path d="M37.8098 13.31C37.8098 15.7091 35.7302 17.6561 33.164 17.6561C30.5984 17.6561 28.5182 15.7101 28.5182 13.31C28.5182 15.7101 26.438 17.6561 23.8725 17.6561C21.3069 17.6561 19.2267 15.7101 19.2267 13.31C19.2267 15.7101 17.1465 17.6561 14.5809 17.6561C12.0153 17.6561 9.93512 15.7101 9.93512 13.31C9.93111 15.6943 7.8333 17.6561 5.28934 17.6561C2.74849 17.6561 0.647561 15.6968 0.643556 13.31C0.637228 9.51207 0.638189 9.73994 0.671591 9.5918H37.7818C37.8208 9.76482 37.8098 9.52863 37.8098 13.31Z" fill="#CAEFF2"/>
<path d="M32.4574 3.80293C24.3211 2.75534 16.1097 4.09899 9.46815 8.78078C8.72058 9.30779 7.80937 9.5918 6.87332 9.5918H0.671692C0.71014 9.42162 0.443648 10.0242 4.47402 1.32198C4.67747 0.883613 5.13965 0.599609 5.64988 0.599609H32.8037C33.3144 0.599609 33.7763 0.883313 33.9794 1.32168L34.1579 1.707C34.6582 2.78703 33.7039 3.96344 32.4574 3.80293Z" fill="white"/>
<path d="M36.56 20.325V33C36.56 34.6542 35.1214 36 33.3532 36H5.13362C3.3654 36 1.92684 34.6542 1.92684 33V20.325C1.92684 19.9937 2.21401 19.725 2.5682 19.725C2.92238 19.725 3.20955 19.9937 3.20955 20.325V33C3.20955 33.9925 4.07265 34.8 5.13362 34.8H12.1083V24.675C12.1083 23.0208 13.5469 21.675 15.3151 21.675H23.1717C24.9399 21.675 26.3785 23.0208 26.3785 24.675V32.4C26.3785 32.7313 26.0913 33 25.7371 33C25.3829 33 25.0958 32.7313 25.0958 32.4V24.675C25.0958 23.6825 24.2326 22.875 23.1717 22.875H15.3151C14.2542 22.875 13.3911 23.6825 13.3911 24.675V34.8H18.6021V25.35C18.6021 25.0187 18.8892 24.75 19.2434 24.75C19.5976 24.75 19.8848 25.0187 19.8848 25.35V34.8H33.3532C34.4141 34.8 35.2773 33.9925 35.2773 33V20.325C35.2773 19.9937 35.5644 19.725 35.9186 19.725C36.2728 19.725 36.56 19.9936 36.56 20.325ZM4.17158 9.6C4.17158 9.93135 4.45875 10.2 4.81294 10.2C39.7081 10.2 37.9779 10.2584 38.2329 10.0754C38.3661 9.9795 38.4533 9.84112 38.4772 9.68303C38.5129 9.4419 38.7431 10.0349 34.2623 0.361425C34.1606 0.141975 33.9295 0 33.6738 0H4.81286C4.55728 0 4.32599 0.14205 4.22441 0.361425L0.0556098 9.36143C-0.0180658 9.52058 0.00269808 9.26798 0.00269808 13.3224C0.0073479 16.0513 2.38092 18.2714 5.29387 18.2714C7.29642 18.2714 9.04403 17.2222 9.94233 15.6797C11.9486 19.129 17.2333 19.1328 19.2433 15.682C21.2517 19.13 26.5341 19.1308 28.543 15.682C29.4406 17.2232 31.1884 18.2714 33.1928 18.2714C36.1104 18.2714 38.484 16.0509 38.484 13.3214C38.484 12.9901 38.1968 12.7214 37.8426 12.7214C37.4884 12.7214 37.2013 12.9901 37.2013 13.3214C37.2013 15.3892 35.4031 17.0714 33.1928 17.0714C30.9825 17.0714 29.1843 15.3892 29.1843 13.3214C29.1843 12.9901 28.8972 12.7214 28.543 12.7214C28.1888 12.7214 27.9016 12.9901 27.9016 13.3214C27.9016 15.3892 26.1034 17.0714 23.8932 17.0714C21.6829 17.0714 19.8847 15.3892 19.8847 13.3214C19.8847 12.9901 19.5975 12.7214 19.2433 12.7214C18.8891 12.7214 18.602 12.9901 18.602 13.3214C18.602 15.3892 16.8038 17.0714 14.5935 17.0714C12.4324 17.0714 10.585 15.4466 10.585 13.2914C10.585 12.9601 10.2979 12.6914 9.94369 12.6914C9.58951 12.6914 9.30234 12.9601 9.30234 13.2914C9.30234 15.4284 7.46654 17.0714 5.29387 17.0714C3.08713 17.0714 1.28885 15.3887 1.28541 13.3214V9.72435L5.23399 1.2H33.2528L36.8658 9H4.81294C4.45867 9 4.17158 9.26858 4.17158 9.6Z" fill="#52C29D"/>
</svg>
